<svg xmlns="http://www.w3.org/2000/svg" viewBox="0 0 50 50" fill="none" stroke="#EADDD3" stroke-width="1" stroke-linecap="round" stroke-linejoin="round">
  <path d="M13.5 0C8.8 0 5 3.8 5 8.5C5 13.2 8.8 17 13.5 17H16V22H21V17H32V41H7.5C6.1 41 5 42.1 5 43.5V47.5C5 48.9 6.1 50 7.5 50H45.5C47.4 50 49 48.4 49 46.5V42L44.4 14.6C46 13 47 10.9 47 8.5C47 3.8 43.2 0 38.5 0H13.5Z" />

  <path d="M10 27H26C26 32.7 25.1 36.4 24.2 38.4C23.7 39.5 23.1 40.2 22.7 40.6C22.4 40.9 22.1 41 22 41H14C13.9 41 13.6 40.9 13.3 40.6C12.9 40.2 12.3 39.5 11.8 38.4C10.9 36.4 10 32.7 10 27Z" />

  <path d="M6.5 30C7.3 30 7.9 30.4 8.2 30.7C8.4 32.3 8.6 33.8 8.8 35H6.5C5.1 35 4 33.9 4 32.5C4 31.1 5.1 30 6.5 30Z" />

  <path d="M40 35C38.9 35 38 35.9 38 37C38 38.1 38.9 39 40 39C41.1 39 42 38.1 42 37C42 35.9 41.1 35 40 35Z" />
</svg>
