<svg xmlns="http://www.w3.org/2000/svg" width="800px" height="800px" viewBox="-15.41 0 126.74 126.74">
  <g id="Layer_2" data-name="Layer 2">
    <g id="Layer_1-2" data-name="Layer 1">
      <path stroke="#fff" fill="none" d="M51.31,27.71c3.14-4.32,5.57-7.81,8.14-11.18,3.41-4.48,8.16-7.16,13.23-9.25A13.76,13.76,0,0,1,78.5,6.22c8.49.52,16.2,8,17.14,16.56,1.14,10.28-1.35,20-5.58,29.15A156.23,156.23,0,0,1,70.73,84.24c-6.9,8.67-14.2,17.12-18.87,27.35-1.77,3.89-3.5,7.8-5.28,11.68a5.53,5.53,0,0,1-9.68,1.09A13.66,13.66,0,0,1,35,120.52c-4.77-14.21-12.35-27.06-19.62-40-5.07-9-9.77-18.2-12.59-28.13C-.75,39.72-1.63,26.93,4.32,14.62a35.18,35.18,0,0,1,6.19-9.16A17.46,17.46,0,0,1,31.8,2.27c9,5.18,16.1,11.83,18.41,22.46A28.62,28.62,0,0,0,51.31,27.71ZM47.89,50.89c-.61-.76-1.68-1.52-2-2.51-1.31-4.67-3.16-9.37-3.4-14.12-.46-9.08-4.81-15.65-11.4-21.2-5.58-4.71-10.79-4-15.29,2C11.1,21.33,10,28.51,10.39,36.13c.46,9.64,3.68,18.52,8,26.95,6.1,12,12.57,23.76,19,35.52,1.45,2.64,2.07,5.9,5.69,8.77.67-1.22,1.14-2.25,1.76-3.18,4.46-6.62,8.9-13.26,13.43-19.83S67.79,71.45,72,64.67c5-8,9.38-16.4,11.76-25.61,1.13-4.4,2.51-9,2.27-13.44-.51-9.44-5.55-12.23-13.72-7A32.7,32.7,0,0,0,61.14,31.37c-2.6,5.07-5,10.27-7.12,15.55C52.87,49.79,51,50.86,47.89,50.89Z"/>
    </g>
  </g>
</svg>
